<svg xmlns="http://www.w3.org/2000/svg" xmlns:xlink="http://www.w3.org/1999/xlink" viewBox="0 0 467.72 189.49"><defs><style>.cls-1{fill:#191919;}.cls-2{fill:url(#linear-gradient);}</style><linearGradient id="linear-gradient" x1="27.77" y1="27.73" x2="161.75" y2="161.72" gradientUnits="userSpaceOnUse"><stop offset="0" stop-color="#00df9e"/><stop offset="0.11" stop-color="#0bd499"/><stop offset="0.3" stop-color="#16c994"/><stop offset="0.5" stop-color="#1ac592"/><stop offset="1" stop-color="#0b8fdf"/></linearGradient></defs><title>Asset 1</title><g id="Layer_2" data-name="Layer 2"><g id="Layer_1-2" data-name="Layer 1"><polygon class="cls-1" points="247.84 90.05 254.98 68.3 261.83 90.05 272.65 90.05 284.24 54.3 274.59 54.3 267.08 77.33 259.88 54.3 250.59 54.3 243.03 77.13 235.84 54.3 225.42 54.3 237.01 90.05 247.84 90.05"/><rect class="cls-1" x="286.6" y="54.3" width="10.11" height="35.74"/><polygon class="cls-1" points="335.47 54.3 325.56 54.3 325.56 73.35 309.79 54.3 301.46 54.3 301.46 90.05 311.37 90.05 311.37 71 327.15 90.05 335.47 90.05 335.47 54.3"/><path class="cls-1" d="M367.54,56.5a23.74,23.74,0,0,0-10.42-2.2h-16.9V90.05h16.9a23.74,23.74,0,0,0,10.42-2.2,16.5,16.5,0,0,0,7-6.23,17.53,17.53,0,0,0,2.5-9.44,17.54,17.54,0,0,0-2.5-9.45A16.5,16.5,0,0,0,367.54,56.5Zm-3.45,22.93a10.39,10.39,0,0,1-7.38,2.6h-6.38V62.42h6.38A10.35,10.35,0,0,1,364.09,65a9.34,9.34,0,0,1,2.78,7.2A9.37,9.37,0,0,1,364.09,79.43Z"/><rect class="cls-1" x="380.61" y="54.3" width="10.11" height="35.74"/><polygon class="cls-1" points="419.57 73.35 403.79 54.3 395.47 54.3 395.47 90.05 405.37 90.05 405.37 71 421.15 90.05 429.47 90.05 429.47 54.3 419.57 54.3 419.57 73.35"/><polygon class="cls-1" points="226.46 108.17 237.44 108.17 237.44 135.9 247.55 135.9 247.55 108.17 258.48 108.17 258.48 100.16 226.46 100.16 226.46 108.17"/><path class="cls-1" d="M292.45,120.15a12.62,12.62,0,0,0-5.65-18.39,20.4,20.4,0,0,0-8.42-1.6H262V135.9h10.11v-9.5h5.51l6.49,9.5H295l-7.71-11.24A12.21,12.21,0,0,0,292.45,120.15Zm-10-2.86a7.05,7.05,0,0,1-4.69,1.35h-5.62V108.17h5.62a7,7,0,0,1,4.69,1.38,4.87,4.87,0,0,1,1.59,3.88A4.79,4.79,0,0,1,282.46,117.29Z"/><polygon class="cls-1" points="307.82 121.55 321.22 121.55 323.66 113.99 307.82 113.99 307.82 107.97 325.84 107.97 325.84 100.16 297.81 100.16 297.81 135.9 326.51 135.9 326.51 128.09 307.82 128.09 307.82 121.55"/><polygon class="cls-1" points="340.08 121.55 353.48 121.55 355.92 113.99 340.08 113.99 340.08 107.97 358.1 107.97 358.1 100.16 330.07 100.16 330.07 135.9 358.76 135.9 358.76 128.09 340.08 128.09 340.08 121.55"/><path class="cls-1" d="M458.78,71.41v9.8a12.79,12.79,0,0,1-5.46,1.18,10.55,10.55,0,0,1-5.26-1.3,9.19,9.19,0,0,1-3.58-3.63,10.8,10.8,0,0,1-1.27-5.28A9.63,9.63,0,0,1,453.42,62,11.3,11.3,0,0,1,462,65.89l2.89-9a18.77,18.77,0,0,0-3-1.66,23,23,0,0,0-9-1.68A21.86,21.86,0,0,0,442.65,56a17.66,17.66,0,0,0-7.1,6.62,19.33,19.33,0,0,0,0,19.19,17.75,17.75,0,0,0,7,6.62,21.36,21.36,0,0,0,10.11,2.37,28.12,28.12,0,0,0,8-1.17,23.61,23.61,0,0,0,7.05-3.37V71.41Z"/><path class="cls-2" d="M162.24,28.25A94.75,94.75,0,1,0,94,189.49h.73A94.75,94.75,0,0,0,162.24,28.25Zm-65.69,151V152.82L107,136.63l9.24,7.61a1.83,1.83,0,0,0,1.16.41,1.85,1.85,0,0,0,.91-.24l9.46-5.49h0l10.53-6.23L147.13,143a1.82,1.82,0,0,0,1.39.64,1.8,1.8,0,0,0,1.07-.35l13.65-9.95,4.68,3.69A84.5,84.5,0,0,1,96.55,179.24Zm-3.63,0a84.4,84.4,0,0,1-67.69-36.42l15.54-1.3a1.59,1.59,0,0,0,.38-.07l.05,0a1.59,1.59,0,0,0,.41-.21l.06,0,8-5.65,20.49,7.71a1.77,1.77,0,0,0,.64.12,1.81,1.81,0,0,0,1.43-.7l7.14-9.15,13.57,19.33ZM161.7,77.6,161.09,71l.1-9.94,12.7,4c.44,1.18.86,2.38,1.25,3.58Zm14.54-5.34a86.68,86.68,0,0,1,2.11,10l-13.43-2.45Zm-35.4-35.49,7.69,9.65-4.25,5.44-16.37-5-.06-2.91Zm-2-14.12A85,85,0,0,1,154.1,34.58l-3.69,8.36-7.51-9.42Zm-7.51,85.09V97.55l6.28-1.4,5.34,7.6Zm13.45-.77,3.22,8.19,2.62,6.79-5.54,2.27-13.42-8.54-.25-4.12Zm-6.77-14.64-6.68,1.49V85.87l11.46,5.39-4.77,1.07Zm-4-9.19,23.59-9.51L158.92,87,148.57,90ZM132.25,80l3.17-11.82L141.61,61l13.86,9.58Zm7.66-22.51-6.15,7-5.82-6.58V50.64l13.94,4.29Zm-2.63-22.87L126,40.78l-12.25-6.84,6.29-7.27ZM121.62,23.39l1.55-8.26a83.24,83.24,0,0,1,10.76,4.71L138,30.91Zm-9.44,62.79-4.11-9.83,9.53-6.59L127.74,83.6v4.06Zm15.56,5.13V107.5l-15-6.6v-11ZM75.61,92.86,64.85,83l10.54-9.26L81.51,76l4.85,15.67Zm11.32,2.38v7.48l-12.73.12,2.15-6.4ZM41.52,78.17,48.83,78l11,5.87L55.41,94.41,42.75,93.5l-.43-5.34h0Zm11.09-2.31L61,69.48l10.36,3-9.43,8.3Zm12.22-9,7-4.67,11.48-.78L81.54,72.13,75.61,70l-.11,0ZM73,58.44V50.11l6-5.36,5.57,8.71-.7,4.23Zm-2.51-11H52l7-10.85,16.94,6Zm-1.12,3.63v8.3l-8.86,5.9-14.3-9,3.37-5.2.43,0H69.41Zm-12,16.51-8.77,6.71-7.71.22-2.67-5.42,6-9.78ZM42,97.09l13.51,1,4.5,8.27-9,6L37,104.12Zm21.14,11.53L69.63,107,69,114l-4,7.45-7.42-3.57L54,114.69Zm.19-3.79L58.6,96.21l4.21-10.12,10.08,9.22-2.63,7.84Zm41.94-51.57-4.73-.87L97,35l13.38,1.19L116,39.36l-7.72,14.3ZM113.89,58,116,66.48l-10.64,7.34L95.47,73l10.37-16ZM98.72,55.76l3.21.59L91.31,72.76H85.12L88.05,55Zm5.85,21.65,4,9.47-7.37,3-6-13.19Zm-3.7,16.45h0l8.21-3.28v10.56L104,104.61l-11-10,7.35-.67A1.53,1.53,0,0,0,100.87,93.86Zm14.86-39.25h-.14l-3.44-.44,7-13,5,2.81.09,4.26v8.18Zm2.42-32.43L99.68,17.11l9-5.73a83.15,83.15,0,0,1,11,2.59Zm-1.84,3.26-6.15,7.1L96.55,31.33V20ZM96.69,52l-9.12-.65-6.11-9.54,3.15-7.86,8.61.77ZM92.92,31l-8.52-.75-7.22-9.89,5.71-9.32,2-.26,8,7.63ZM73.86,18.84l-8.29,1.71-1.8-4.47a84.23,84.23,0,0,1,14.36-4.22Zm-8.19,5.41,8.55-1.77,7.14,9.77-3,7.43L60.83,33.42Zm-7.76,6.92-7.14-8.62a82.67,82.67,0,0,1,9.65-5.06l2,5.05Zm-3.76,1.16-15.23-1a84.51,84.51,0,0,1,8.77-6.76ZM42.61,35.19,55,36,47.71,47.33l-9.54-.54Zm2.83,15.66-3.25,5h0l0,0L35.63,66.46,21.73,57l14.21-6.68ZM38.57,86.93l-10,2.79L23.68,79.44l14.16-1.62ZM28,93.64h0l10.86-3,.32,4.08-8.88,12.58-9.72-12,7.33-1.6Zm6.91,13.46L47,114.27,37,118.7l-4.44-8.28Zm15.77,9.53,3.7,3.22L48.79,131.7l-.46.32h0l-7.17,5.07-7.62-12.68L37,122.69Zm6.79,5.19L65,125.45h0l11.63,5.67-6.45,8.27-17.83-6.71ZM68.28,123l3.53-6.59,15,1.37-8,10.4Zm4.47-10.15.58-6.37,13.6-.13v.6c0,.1,0,.2,0,.3l1.17,7ZM85.44,76.4h5.68l6.4,14.19-7.47.68Zm5.12,20.91,10.4,9.42-9.34,6.43-1.06-6.35Zm18.28,8.41-1,13.77-12.09,8.36L92.43,117ZM110.63,122,124,136.9l-6.43,3.73-9.84-8.1a1.64,1.64,0,0,0-.22-.14l-.07,0a1.37,1.37,0,0,0-.38-.15h0L99,130Zm3.9-1.1,13.26-2-2.13,14.37Zm-2.91-3.23.93-12.88,15.26,6.72.22,3.67Zm8.08-51.18-1.89-7.73,7.35,1.52,6.6,7.46-3,11.14Zm11.63,53.28,10.27,6.52-3.81,2.52-8.54,5Zm14.46,8.11L152.7,125l7.58,6-11.47,8.36-7.35-8.66Zm6-13.19,4.15-6.81,7.33,7-9.32,5.43ZM154,104h0l-3.9,6.39L147.56,104s0,0,0,0a1.09,1.09,0,0,0-.08-.15l-.09-.17,0,0-5.87-8.35,7.31-1.64.06,0h0l10.36-2.92.37,4.06Zm4-46.58a.87.87,0,0,0-.11.18l-.07.11a1.66,1.66,0,0,0-.14.37v0a2.23,2.23,0,0,0,0,.36v0l-.09,9.06-13.56-9.38,7.68-9.83,11.7,2Zm4.45.14,4.82-6.35a83.07,83.07,0,0,1,4.88,9.42ZM153.47,45l3.36-7.61a84.22,84.22,0,0,1,7.57,9.47ZM95.24,15.62l-5.51-5.24c1.66-.1,3.33-.16,5-.16q4.23,0,8.36.41ZM38.81,34.93l-4.67,12.2-13,6.14A85.26,85.26,0,0,1,35.28,34.68ZM34.76,70.27l2,4L22.05,76,16.18,63.51q.93-2.31,2-4.55ZM18.23,76.4l-6.16.71a85.09,85.09,0,0,1,2.37-8.77Zm1.64,3.47,5,10.72L10.24,93.8a83.69,83.69,0,0,1,1.13-13ZM16.62,96.12l6.25,7.73-11.6,4.22a87.22,87.22,0,0,1-1-10.56Zm8.66,10.72,3.61,4.46,4.81,9L26,124.14l-13.45-9.49c-.24-1-.46-2-.66-3Zm-1.7,20L20,134.24a83.79,83.79,0,0,1-5.89-14.06Zm3.67.75,3-1.54,7.26,12.08L23,139.36l-.78-1.26Zm54.43,2.92,7.92-10.34L93,131.29s0,.07,0,.11a1.77,1.77,0,0,0,.15.31l.13.18a1.67,1.67,0,0,0,.23.23,1.07,1.07,0,0,0,.16.14,1.55,1.55,0,0,0,.29.14,1.33,1.33,0,0,0,.21.09l0,0,9.46,2.54-9.06,14Zm74.53-7.34,9.77-5.69,7.74,7.4a85.53,85.53,0,0,1-4,8.94Zm13-7.6,8.53-5a84.05,84.05,0,0,1-2.71,10.52ZM166.51,113l-8.67-8.28,4.58-7.51,16.69,2.54q-.18,3.16-.59,6.25Zm-3.34-19.36-.49-5.37h0L162.2,83l16.62,3a86.14,86.14,0,0,1,.44,8.69c0,.45,0,.89,0,1.33Z"/></g></g></svg>